<?xml version="1.0" encoding="utf-8"?>
<!-- Generator: Adobe Illustrator 16.0.0, SVG Export Plug-In . SVG Version: 6.00 Build 0)  -->
<!DOCTYPE svg PUBLIC "-//W3C//DTD SVG 1.1//EN" "http://www.w3.org/Graphics/SVG/1.1/DTD/svg11.dtd">
<svg version="1.1" xmlns="http://www.w3.org/2000/svg" xmlns:xlink="http://www.w3.org/1999/xlink" x="0px" y="0px" width="449px"
	 height="139px" viewBox="0 0 449 139" enable-background="new 0 0 449 139" xml:space="preserve">
<g id="Grid" display="none">
</g>
<g id="Layer_1">
</g>
<g id="Desktop">
</g>
<g id="Guides">
</g>
<g id="Page_1">
	<g id="Layer_1_1_">
		<path fill-rule="evenodd" clip-rule="evenodd" fill="#FF0000" d="M14.64,131.572c-6.008,6.844-11.446,3.232-7.482-7.015
			c24.453-53.58,55.774-97.992,91.189-113.636c13.873-2.806,20.264,1.248,19.173,12.158c-2.027,10.757-8.418,19.641-19.173,26.655
			c10.08,10.471,12.578,24.965,9.539,38.543l314.928,1.139l-0.022-0.065c9.791,0.069,14.563-4.056,11.314-9.346
			c-3.608-3.772-8.035-5.085-18.201-3.198c-12.708,2.541-25.417,9.757-38.126,10.577c-11.813,0.081-16.238-6.315-16.233-18.694
			c-5.216,7.48-11.92,13.18-20.415,16.727c-7.625,3.269-11.971,1.648-13.036-4.92l0.046-0.514
			c-4.414,3.868-9.306,6.778-15.513,7.057c-7.769,0.691-11.374-3.69-12.911-9.444c-9.479,9.026-19.021,10.574-26.692,3.353
			c-2.596-2.37-4.449-6.738-4.11-12.298c-6.108,6.714-14.154,13.257-22.97,16.359c-8.124,1.354-11.734-1.805-10.832-9.478
			c2.031-8.575,6.319-16.699,12.863-24.372c1.692-8.574-7.222-9.479-13.54-6.77c-9.591,3.047-14.555,18.504-27.418,37.912
			c-5.303,5.076-11.058,2.143-7.109-5.756c8.689-14.387,15.684-26.798,18.956-34.865c-8.429,4.863-16.859,9.623-25.287,11.306
			c0.514,6.782-1.617,13.564-6.395,20.349c-4.381,8.585-12.697,12.25-22.802,13.682c-8.674-2.236-13.057-7.692-13.146-16.365
			c-2.668,5.793-24.101,26.592-29.241,9.927c-3.242-12.542-0.962-26.537,9.39-42.654l-10.194-2.684
			c-2.801-2.708,1.441-6.651,4.024-2.95l8.584,1.341c7.69-14.575,22.981-29.24,33.802-28.705c7.868,0.807,8.763,4.92,7.511,9.927
			c-5.991,11.356-16.99,18.778-32.997,22.266c-8.205,12.116-13.794,24.814-15.56,38.363c0.536,6.437,3.934,7.868,10.194,4.292
			l12.877-13.414c6.526-19.941,16.631-29.867,30.314-29.777c5.364,0.49,8.941,2.548,10.73,5.901
			c0.953,1.994,1.677,3.988,2.173,5.983c8.117-1.353,16.233-6.694,24.35-10.026c6.423-2.989,9.686-1.015,9.789,5.925
			c7.385-5.111,15.108-8.532,22.494-8.229c8.438,1.709,10.558,7.028,6.359,15.957l-12.881,23.443
			c0.84,12.865,24.322-9.079,23.797-11.836c10.553-21.797,21.105-29.108,31.659-27.436c7.673-0.677,11.509,5.642,12.524,11.847
			l24.695-41.128c5.793-3.099,9.305-1.233,7.801,5.248l-35.881,62.621c-1.227,11.332,6.77,10.77,21.664-5.754l-0.008,0.078
			c6.564-12.761,12.146-23.412,18.072-30.988c5.904-2.049,8.527-0.163,7.872,5.657l-20.17,34.189
			c-1.489,4.852,1.632,4.518,5.411,3.444c7.357-4.202,13.549-9.573,18.939-15.742c5.801-11.786,14.953-26.915,26.073-28.041
			c10.56-2.386,20.518,4.381,16.479,11.315c-6.004,10.798-16.965,16.444-30.746,15.249c-3.341,8.773-2.398,14.43,1.477,17.956
			c2.949,2.747,11.313,0.533,22.137-3.936c12.626-6.765,23.448-8.568,33.451-8.117c12.953,2.051,18.037,7.707,15.25,16.972
			c-2.822,6.437-9.084,9.434-17.708,10.067l0.016,0.065l-320.69-0.149c-5.045,12.09-14.542,22.425-26.832,26.969
			c-17.442,4.746-29.71-0.202-32.267-13.094c-1.016-10.522,5.218-18.628,22.914-22.915c9.508-1.403,19.017-1.091,28.525,0
			c6.235-13.677,3.585-25.134-5.144-35.072c-5.612,4.054-11.847,5.613-18.706,4.676c-8.573-4.052-8.417-8.729,0.468-14.028
			c7.014-2.493,13.405-1.87,19.173,1.87c9.353-6.39,15.587-14.029,18.706-22.913c1.091-6.859-2.807-8.729-11.691-5.612
			C67.327,37.109,38.801,75.3,14.64,131.572L14.64,131.572z M304.396,44.61c3.607,6.259,0.57,19.021-6.766,28.409
			c-7.336,9.389-16.264,11.938-19.869,5.678c-3.607-6.261-0.57-19.023,6.766-28.412C291.863,40.897,300.789,38.351,304.396,44.61
			L304.396,44.61z M373.599,59.836c4.345-7.871,9.347-13.445,15.004-16.727c6.805-1.721,9.675,0.165,8.608,5.658
			C389.34,55.941,381.469,59.222,373.599,59.836L373.599,59.836z M369.785,6.116c2.67,1.167,3.449,5.324,1.73,9.254
			c-1.718,3.93-5.299,6.182-7.97,5.012c-2.671-1.167-3.449-5.325-1.731-9.255C363.533,7.198,367.113,4.948,369.785,6.116
			L369.785,6.116z M146.943,30.681c9.39-12.898,17.616-23.227,24.144-19.583C170.909,17.983,162.86,24.511,146.943,30.681
			L146.943,30.681z M186.646,46.24l1.073-1.609V43.29l-1.877-1.073l-2.951-0.269c-13.234,4.114-21.104,14.307-23.608,30.582
			c-0.715,7.064,1.521,10.016,7.244,9.926c12.095-5.299,18.936-13.033,21.729-23.339V55.63l0.269-1.878V52.41
			C184.345,52.883,183.104,49.083,186.646,46.24L186.646,46.24z M80.213,48.251c2.668-0.542,5-0.219,5.19,0.721
			c0.191,0.938-1.83,2.146-4.497,2.688c-2.668,0.542-5,0.219-5.191-0.72C75.526,50.001,77.546,48.793,80.213,48.251L80.213,48.251z
			 M94.151,96.749c-7.062,10.928-16.443,16.701-27.747,18.204c-10.545-0.118-12.725-8.777-4.949-13.785
			C69.552,95.492,81.336,95.347,94.151,96.749L94.151,96.749z"/>
	</g>
</g>
</svg>
